M48
; DRILL file {KiCad 7.0.7-7.0.7~ubuntu20.04.1} date Mo 11 Sep 2023 23:39:23 CEST
; FORMAT={-:-/ absolute / metric / decimal}
; #@! TF.CreationDate,2023-09-11T23:39:23+02:00
; #@! TF.GenerationSoftware,Kicad,Pcbnew,7.0.7-7.0.7~ubuntu20.04.1
; #@! TF.FileFunction,Plated,1,2,PTH
FMAT,2
METRIC
; #@! TA.AperFunction,Plated,PTH,ViaDrill
T1C0.400
; #@! TA.AperFunction,Plated,PTH,ComponentDrill
T2C0.700
; #@! TA.AperFunction,Plated,PTH,ComponentDrill
T3C0.800
; #@! TA.AperFunction,Plated,PTH,ComponentDrill
T4C0.900
; #@! TA.AperFunction,Plated,PTH,ComponentDrill
T5C1.000
; #@! TA.AperFunction,Plated,PTH,ComponentDrill
T6C1.200
; #@! TA.AperFunction,Plated,PTH,ComponentDrill
T7C1.300
%
G90
G05
T1
X101.092Y-124.714
X101.092Y-141.986
X102.108Y-125.476
X102.108Y-141.224
X103.124Y-126.238
X103.124Y-140.462
X106.934Y-86.614
X111.252Y-82.296
X121.412Y-55.88
X131.572Y-128.27
X142.494Y-130.302
X143.51Y-130.302
X144.018Y-60.706
X144.272Y-128.27
X144.526Y-130.302
X152.4Y-130.302
X153.416Y-130.302
X166.878Y-132.842
X166.878Y-133.858
X166.878Y-134.874
T3
X102.394Y-118.618
X102.402Y-100.838
X104.394Y-103.886
X104.394Y-114.046
X104.394Y-118.618
X104.902Y-100.838
X108.204Y-96.266
X108.204Y-100.838
X108.204Y-105.156
X108.204Y-109.474
X108.204Y-114.046
X108.204Y-118.618
X111.252Y-78.232
X113.752Y-78.232
X114.3Y-87.884
X116.8Y-87.884
X117.602Y-63.246
X117.602Y-73.406
X118.364Y-96.266
X118.364Y-100.838
X118.364Y-105.156
X118.364Y-109.474
X118.364Y-114.046
X118.364Y-118.618
X122.174Y-96.266
X122.428Y-69.088
X122.428Y-79.248
X123.19Y-101.854
X123.19Y-104.394
X123.19Y-106.934
X123.19Y-109.474
X123.19Y-114.3
X123.19Y-119.3
X123.444Y-38.354
X123.444Y-48.514
X124.674Y-96.266
X128.31Y-93.766
X128.31Y-96.266
X130.81Y-101.854
X130.81Y-104.394
X130.81Y-106.934
X130.81Y-109.474
X130.81Y-114.554
X130.81Y-117.094
X130.81Y-119.634
X130.81Y-122.174
X132.588Y-91.694
X132.588Y-96.266
X135.088Y-96.266
X135.128Y-101.894
X135.128Y-104.394
X135.128Y-106.934
X135.128Y-109.434
X138.43Y-114.554
X138.43Y-117.094
X138.43Y-119.634
X138.43Y-122.174
X139.446Y-99.314
X139.446Y-109.474
X142.748Y-91.694
X143.256Y-109.474
X144.272Y-99.346
X144.272Y-101.346
X147.32Y-37.084
X147.32Y-47.244
X148.336Y-114.554
X148.336Y-117.054
X149.098Y-91.186
X149.098Y-101.346
X150.916Y-105.156
X153.416Y-91.186
X153.416Y-101.346
X153.416Y-105.156
X153.416Y-109.474
X153.924Y-114.554
X153.924Y-118.872
X156.21Y-70.358
X156.21Y-80.518
X157.766Y-98.806
X158.924Y-118.872
X159.766Y-98.806
X161.584Y-108.204
X164.084Y-88.646
X164.084Y-98.806
X164.084Y-108.204
X164.084Y-114.554
T4
X133.858Y-37.084
X136.398Y-37.084
T5
X111.252Y-133.604
X111.252Y-136.144
X113.792Y-133.604
X113.792Y-136.144
X116.332Y-133.604
X116.332Y-136.144
X118.872Y-133.604
X118.872Y-136.144
X121.412Y-133.604
X121.412Y-136.144
X123.952Y-133.604
X123.952Y-136.144
X126.492Y-133.604
X126.492Y-136.144
X129.032Y-133.604
X129.032Y-136.144
X131.572Y-133.604
X131.572Y-136.144
X134.112Y-133.604
X134.112Y-136.144
X136.652Y-133.604
X136.652Y-136.144
X139.192Y-133.604
X139.192Y-136.144
X141.732Y-133.604
X141.732Y-136.144
X144.272Y-133.604
X144.272Y-136.144
X146.812Y-133.604
X146.812Y-136.144
X149.352Y-133.604
X149.352Y-136.144
X151.892Y-133.604
X151.892Y-136.144
X154.432Y-133.604
X154.432Y-136.144
X156.972Y-133.604
X156.972Y-136.144
X159.512Y-133.604
X159.512Y-136.144
X164.084Y-76.788
X164.084Y-81.788
T6
X99.06Y-37.084
X99.06Y-48.484
X105.41Y-37.084
X105.41Y-48.484
X111.76Y-37.084
X111.76Y-48.484
X157.48Y-37.084
X157.48Y-48.484
X163.83Y-37.084
X163.83Y-48.484
X170.18Y-37.084
X170.18Y-48.484
T7
X161.584Y-79.288
T2
X114.846Y-55.908G85X113.246Y-55.908
G05
X114.846Y-59.408G85X113.246Y-59.408
G05
X157.01Y-55.936G85X155.41Y-55.936
G05
X157.01Y-59.436G85X155.41Y-59.436
G05
T5
X98.394Y-67.198G85X98.394Y-69.198
G05
X100.394Y-72.898G85X102.394Y-72.898
G05
X104.394Y-67.198G85X104.394Y-69.198
G05
T6
X130.378Y-73.278G85X129.278Y-73.278
G05
X130.378Y-77.978G85X129.278Y-77.978
G05
X130.378Y-82.678G85X129.278Y-82.678
G05
X130.428Y-49.064G85X130.428Y-47.964
G05
X135.128Y-49.064G85X135.128Y-47.964
G05
X135.678Y-73.278G85X134.578Y-73.278
G05
X135.678Y-77.978G85X134.578Y-77.978
G05
X135.678Y-82.678G85X134.578Y-82.678
G05
X139.828Y-49.064G85X139.828Y-47.964
G05
X140.978Y-73.278G85X139.878Y-73.278
G05
X140.978Y-77.978G85X139.878Y-77.978
G05
X140.978Y-82.678G85X139.878Y-82.678
G05
T0
M30
